<svg width="228" height="228" viewBox="0 0 228 228" fill="none" xmlns="http://www.w3.org/2000/svg">
<path d="M208 0H20C8.9543 0 0 8.9543 0 20V208C0 219.046 8.9543 228 20 228H208C219.046 228 228 219.046 228 208V20C228 8.9543 219.046 0 208 0Z" fill="#353535"/>
<path d="M75.0969 98.3281C75.8469 99.6094 76.4406 100.75 76.8781 101.75C77.3156 102.719 77.7063 103.75 78.05 104.844C78.4563 103.719 78.9094 102.609 79.4094 101.516C79.9094 100.422 80.5188 99.2656 81.2375 98.0469L90.9406 80.375H106.503L86.0188 113.094L107.159 149H91.3156L81.1438 129.969C80.5188 128.812 79.9563 127.609 79.4563 126.359C78.9875 125.109 78.55 123.797 78.1438 122.422C77.6125 124.047 77.0813 125.5 76.55 126.781C76.0188 128.062 75.5031 129.172 75.0031 130.109L64.8313 149H49.0813L70.2688 113.094L49.6438 80.375H65.3L75.0969 98.3281ZM143.216 149V117.688L119.966 80.375H137.169L147.341 99.1719C147.841 100.109 148.356 101.297 148.888 102.734C149.419 104.172 149.966 105.828 150.528 107.703C150.966 106.109 151.45 104.609 151.981 103.203C152.544 101.797 153.169 100.422 153.856 99.0781L163.934 80.375H181.044L157.888 117.688V149H143.216Z" fill="#BDE270"/>
</svg>
