<svg width="228" height="228" viewBox="0 0 228 228" fill="none" xmlns="http://www.w3.org/2000/svg">
<path fill-rule="evenodd" clip-rule="evenodd" d="M20 0H208C219.046 0 228 8.95432 228 20V208C228 219.046 219.046 228 208 228H20C8.9543 228 0 219.046 0 208V20C0 8.95432 8.9543 0 20 0ZM76.8781 101.75C76.4406 100.75 75.8469 99.6094 75.0969 98.3281L65.3 80.375H49.6438L70.2688 113.094L49.0813 149H64.8313L75.0031 130.109C75.5031 129.172 76.0188 128.062 76.55 126.781C77.0813 125.5 77.6125 124.047 78.1438 122.422C78.55 123.797 78.9875 125.109 79.4563 126.359C79.9563 127.609 80.5188 128.812 81.1438 129.969L91.3156 149H107.159L86.0188 113.094L106.503 80.375H90.9406L81.2375 98.0469C80.5188 99.2656 79.9094 100.422 79.4094 101.516C78.9094 102.609 78.4563 103.719 78.05 104.844C77.7063 103.75 77.3156 102.719 76.8781 101.75ZM143.216 117.688V149H157.888V117.688L181.044 80.375H163.934L153.856 99.0781C153.169 100.422 152.544 101.797 151.981 103.203C151.45 104.609 150.966 106.109 150.528 107.703C149.966 105.828 149.419 104.172 148.888 102.734C148.356 101.297 147.841 100.109 147.341 99.1719L137.169 80.375H119.966L143.216 117.688Z" fill="#353535"/>
</svg>
